# xmcd CD database file
#
# Track frame offsets:
#	150
#	21455
#	44917
#
# Disc length: 894 seconds
#
# Revision: 0
# Processed by: cddbd v1.5PL3 Copyright (c) Steve Scherf et al.
# Submitted via: CDex 1.50beta10
#
DISCID=28037c03
DTITLE=La' Mule - 一日の孤独 百年の孤独
DYEAR=1900
DGENRE=Rock
TTITLE0=一日の孤独 百年の孤独
TTITLE1=宙〜sola〜
TTITLE2=life, life, life〜foolish〜
EXTD=
EXTT0=
EXTT1=
EXTT2=
PLAYORDER=
